<?xml version="1.0" encoding="utf-8"?><svg width="auto" height="1820" style="overflow:visible " version="1.1" xmlns="http://www.w3.org/2000/svg"><rect x="20" y="20" width="200" height="40" style="fill:white;stroke:black;stroke-width:1" /><text x="30" y="30" font-size="10" style="fill:blue">rutas</text><rect x="240" y="20" width="200" height="40" style="fill:white;stroke:black;stroke-width:1" /><text x="250" y="30" font-size="10" style="fill:blue">ruta</text><path d="M220 40 C240 40 220 40 240 40" style="fill:transparent;stroke:black" /><rect x="460" y="20" width="200" height="40" style="fill:white;stroke:black;stroke-width:1" /><text x="470" y="30" font-size="10" style="fill:blue">nombre</text><path d="M440 40 C460 40 440 40 460 40" style="fill:transparent;stroke:black" /><rect x="526" y="20" width="137" height="40" style="fill:green;stroke:black;stroke-width:1" /><text x="536" y="30" font-size="8" style="fill:white">Ruta de los Molinos</text><rect x="460" y="70" width="200" height="40" style="fill:white;stroke:black;stroke-width:1" /><text x="470" y="80" font-size="10" style="fill:blue">tipo</text><path d="M440 40 C460 40 440 90 460 90" style="fill:transparent;stroke:black" /><rect x="526" y="70" width="137" height="40" style="fill:green;stroke:black;stroke-width:1" /><text x="536" y="80" font-size="8" style="fill:white">Arquitectura y Monumentos</text><rect x="460" y="120" width="200" height="40" style="fill:white;stroke:black;stroke-width:1" /><text x="470" y="130" font-size="10" style="fill:blue">medio</text><path d="M440 40 C460 40 440 140 460 140" style="fill:transparent;stroke:black" /><rect x="526" y="120" width="137" height="40" style="fill:green;stroke:black;stroke-width:1" /><text x="536" y="130" font-size="8" style="fill:white">Bicicleta</text><rect x="460" y="170" width="200" height="40" style="fill:white;stroke:black;stroke-width:1" /><text x="470" y="180" font-size="10" style="fill:blue">fecha_inicio</text><path d="M440 40 C460 40 440 190 460 190" style="fill:transparent;stroke:black" /><rect x="526" y="170" width="137" height="40" style="fill:green;stroke:black;stroke-width:1" /><text x="536" y="180" font-size="8" style="fill:white">2023-11-15</text><rect x="460" y="220" width="200" height="40" style="fill:white;stroke:black;stroke-width:1" /><text x="470" y="230" font-size="10" style="fill:blue">hora_inicio</text><path d="M440 40 C460 40 440 240 460 240" style="fill:transparent;stroke:black" /><rect x="526" y="220" width="137" height="40" style="fill:green;stroke:black;stroke-width:1" /><text x="536" y="230" font-size="8" style="fill:white">09:00 AM</text><rect x="460" y="270" width="200" height="40" style="fill:white;stroke:black;stroke-width:1" /><text x="470" y="280" font-size="10" style="fill:blue">duracion</text><path d="M440 40 C460 40 440 290 460 290" style="fill:transparent;stroke:black" /><rect x="526" y="270" width="137" height="40" style="fill:green;stroke:black;stroke-width:1" /><text x="536" y="280" font-size="8" style="fill:white">2 horas</text><rect x="460" y="320" width="200" height="40" style="fill:white;stroke:black;stroke-width:1" /><text x="470" y="330" font-size="10" style="fill:blue">agencia</text><path d="M440 40 C460 40 440 340 460 340" style="fill:transparent;stroke:black" /><rect x="526" y="320" width="137" height="40" style="fill:green;stroke:black;stroke-width:1" /><text x="536" y="330" font-size="8" style="fill:white">NaturaMundo</text><rect x="460" y="370" width="200" height="40" style="fill:white;stroke:black;stroke-width:1" /><text x="470" y="380" font-size="10" style="fill:blue">descripcion</text><path d="M440 40 C460 40 440 390 460 390" style="fill:transparent;stroke:black" /><rect x="526" y="370" width="137" height="40" style="fill:green;stroke:black;stroke-width:1" /><text x="536" y="380" font-size="8" style="fill:white">Recorre los molinos históricos de la región y disfruta de su arquitectura única.</text><rect x="460" y="420" width="200" height="40" style="fill:white;stroke:black;stroke-width:1" /><text x="470" y="430" font-size="10" style="fill:blue">personas_adecuadas</text><path d="M440 40 C460 40 440 440 460 440" style="fill:transparent;stroke:black" /><rect x="526" y="420" width="137" height="40" style="fill:green;stroke:black;stroke-width:1" /><text x="536" y="430" font-size="8" style="fill:white">Personas en buena forma física</text><rect x="460" y="470" width="200" height="40" style="fill:white;stroke:black;stroke-width:1" /><text x="470" y="480" font-size="10" style="fill:blue">inicio</text><path d="M440 40 C460 40 440 490 460 490" style="fill:transparent;stroke:black" /><rect x="680" y="470" width="200" height="40" style="fill:white;stroke:black;stroke-width:1" /><text x="690" y="480" font-size="10" style="fill:blue">lugar</text><path d="M660 490 C680 490 660 490 680 490" style="fill:transparent;stroke:black" /><rect x="746" y="470" width="137" height="40" style="fill:green;stroke:black;stroke-width:1" /><text x="756" y="480" font-size="8" style="fill:white">Plaza del Ayuntamiento</text><rect x="680" y="520" width="200" height="40" style="fill:white;stroke:black;stroke-width:1" /><text x="690" y="530" font-size="10" style="fill:blue">direccion</text><path d="M660 490 C680 490 660 540 680 540" style="fill:transparent;stroke:black" /><rect x="746" y="520" width="137" height="40" style="fill:green;stroke:black;stroke-width:1" /><text x="756" y="530" font-size="8" style="fill:white">Calle Principal número 7</text><rect x="680" y="570" width="200" height="40" style="fill:white;stroke:black;stroke-width:1" /><text x="690" y="580" font-size="10" style="fill:blue">coordenadas</text><path d="M660 490 C680 490 660 590 680 590" style="fill:transparent;stroke:black" /><rect x="900" y="570" width="200" height="40" style="fill:white;stroke:black;stroke-width:1" /><text x="910" y="580" font-size="10" style="fill:blue">longitud</text><path d="M880 590 C900 590 880 590 900 590" style="fill:transparent;stroke:black" /><rect x="966" y="570" width="137" height="40" style="fill:green;stroke:black;stroke-width:1" /><text x="976" y="580" font-size="8" style="fill:white">45.12345</text><rect x="900" y="620" width="200" height="40" style="fill:white;stroke:black;stroke-width:1" /><text x="910" y="630" font-size="10" style="fill:blue">latitud</text><path d="M880 590 C900 590 880 640 900 640" style="fill:transparent;stroke:black" /><rect x="966" y="620" width="137" height="40" style="fill:green;stroke:black;stroke-width:1" /><text x="976" y="630" font-size="8" style="fill:white">7.54321</text><rect x="900" y="670" width="200" height="40" style="fill:white;stroke:black;stroke-width:1" /><text x="910" y="680" font-size="10" style="fill:blue">altitud</text><path d="M880 590 C900 590 880 690 900 690" style="fill:transparent;stroke:black" /><rect x="966" y="670" width="137" height="40" style="fill:green;stroke:black;stroke-width:1" /><text x="976" y="680" font-size="8" style="fill:white">100</text><rect x="460" y="820" width="200" height="40" style="fill:white;stroke:black;stroke-width:1" /><text x="470" y="830" font-size="10" style="fill:blue">referencias</text><path d="M440 40 C460 40 440 840 460 840" style="fill:transparent;stroke:black" /><rect x="680" y="820" width="200" height="40" style="fill:white;stroke:black;stroke-width:1" /><text x="690" y="830" font-size="10" style="fill:blue">referencia</text><path d="M660 840 C680 840 660 840 680 840" style="fill:transparent;stroke:black" /><rect x="900" y="820" width="200" height="40" style="fill:white;stroke:black;stroke-width:1" /><text x="910" y="830" font-size="10" style="fill:blue">titulo</text><path d="M880 840 C900 840 880 840 900 840" style="fill:transparent;stroke:black" /><rect x="966" y="820" width="137" height="40" style="fill:green;stroke:black;stroke-width:1" /><text x="976" y="830" font-size="8" style="fill:white">Foncalada Wikipedia</text><rect x="900" y="870" width="200" height="40" style="fill:white;stroke:black;stroke-width:1" /><text x="910" y="880" font-size="10" style="fill:blue">bibliografia</text><path d="M880 840 C900 840 880 890 900 890" style="fill:transparent;stroke:black" /><rect x="966" y="870" width="137" height="40" style="fill:green;stroke:black;stroke-width:1" /><text x="976" y="880" font-size="8" style="fill:white">https://es.wikipedia.org/wiki/Foncalada</text><rect x="460" y="1020" width="200" height="40" style="fill:white;stroke:black;stroke-width:1" /><text x="470" y="1030" font-size="10" style="fill:blue">recomendacion</text><path d="M440 40 C460 40 440 1040 460 1040" style="fill:transparent;stroke:black" /><rect x="526" y="1020" width="137" height="40" style="fill:green;stroke:black;stroke-width:1" /><text x="536" y="1030" font-size="8" style="fill:white">7</text><rect x="460" y="1070" width="200" height="40" style="fill:white;stroke:black;stroke-width:1" /><text x="470" y="1080" font-size="10" style="fill:blue">hitos</text><path d="M440 40 C460 40 440 1090 460 1090" style="fill:transparent;stroke:black" /><rect x="680" y="1070" width="200" height="40" style="fill:white;stroke:black;stroke-width:1" /><text x="690" y="1080" font-size="10" style="fill:blue">hito</text><path d="M660 1090 C680 1090 660 1090 680 1090" style="fill:transparent;stroke:black" /><rect x="900" y="1070" width="200" height="40" style="fill:white;stroke:black;stroke-width:1" /><text x="910" y="1080" font-size="10" style="fill:blue">nombre</text><path d="M880 1090 C900 1090 880 1090 900 1090" style="fill:transparent;stroke:black" /><rect x="966" y="1070" width="137" height="40" style="fill:green;stroke:black;stroke-width:1" /><text x="976" y="1080" font-size="8" style="fill:white">Molino A</text><rect x="900" y="1120" width="200" height="40" style="fill:white;stroke:black;stroke-width:1" /><text x="910" y="1130" font-size="10" style="fill:blue">descripcion</text><path d="M880 1090 C900 1090 880 1140 900 1140" style="fill:transparent;stroke:black" /><rect x="966" y="1120" width="137" height="40" style="fill:green;stroke:black;stroke-width:1" /><text x="976" y="1130" font-size="8" style="fill:white">Antiguo molino restaurado con rueda de agua.</text><rect x="900" y="1170" width="200" height="40" style="fill:white;stroke:black;stroke-width:1" /><text x="910" y="1180" font-size="10" style="fill:blue">coordenadas</text><path d="M880 1090 C900 1090 880 1190 900 1190" style="fill:transparent;stroke:black" /><rect x="1120" y="1170" width="200" height="40" style="fill:white;stroke:black;stroke-width:1" /><text x="1130" y="1180" font-size="10" style="fill:blue">longitud</text><path d="M1100 1190 C1120 1190 1100 1190 1120 1190" style="fill:transparent;stroke:black" /><rect x="1186" y="1170" width="137" height="40" style="fill:green;stroke:black;stroke-width:1" /><text x="1196" y="1180" font-size="8" style="fill:white">45.12456</text><rect x="1120" y="1220" width="200" height="40" style="fill:white;stroke:black;stroke-width:1" /><text x="1130" y="1230" font-size="10" style="fill:blue">latitud</text><path d="M1100 1190 C1120 1190 1100 1240 1120 1240" style="fill:transparent;stroke:black" /><rect x="1186" y="1220" width="137" height="40" style="fill:green;stroke:black;stroke-width:1" /><text x="1196" y="1230" font-size="8" style="fill:white">7.54123</text><rect x="1120" y="1270" width="200" height="40" style="fill:white;stroke:black;stroke-width:1" /><text x="1130" y="1280" font-size="10" style="fill:blue">altitud</text><path d="M1100 1190 C1120 1190 1100 1290 1120 1290" style="fill:transparent;stroke:black" /><rect x="1186" y="1270" width="137" height="40" style="fill:green;stroke:black;stroke-width:1" /><text x="1196" y="1280" font-size="8" style="fill:white">110</text><rect x="900" y="1370" width="200" height="40" style="fill:white;stroke:black;stroke-width:1" /><text x="910" y="1380" font-size="10" style="fill:blue">distancia</text><path d="M880 1090 C900 1090 880 1390 900 1390" style="fill:transparent;stroke:black" /><text x="910" y="1390" font-size="8" style="fill:black">unidades: km</text><rect x="966" y="1370" width="137" height="40" style="fill:green;stroke:black;stroke-width:1" /><text x="976" y="1380" font-size="8" style="fill:white">0.5</text><rect x="900" y="1420" width="200" height="40" style="fill:white;stroke:black;stroke-width:1" /><text x="910" y="1430" font-size="10" style="fill:blue">galeria_fotos</text><path d="M880 1090 C900 1090 880 1440 900 1440" style="fill:transparent;stroke:black" /><rect x="1120" y="1420" width="200" height="40" style="fill:white;stroke:black;stroke-width:1" /><text x="1130" y="1430" font-size="10" style="fill:blue">foto</text><path d="M1100 1440 C1120 1440 1100 1440 1120 1440" style="fill:transparent;stroke:black" /><rect x="1186" y="1420" width="137" height="40" style="fill:green;stroke:black;stroke-width:1" /><text x="1196" y="1430" font-size="8" style="fill:white">Monumento.jpg</text><rect x="900" y="1520" width="200" height="40" style="fill:white;stroke:black;stroke-width:1" /><text x="910" y="1530" font-size="10" style="fill:blue">galeria_videos</text><path d="M880 1090 C900 1090 880 1540 900 1540" style="fill:transparent;stroke:black" /><rect x="1120" y="1520" width="200" height="40" style="fill:white;stroke:black;stroke-width:1" /><text x="1130" y="1530" font-size="10" style="fill:blue">video</text><path d="M1100 1540 C1120 1540 1100 1540 1120 1540" style="fill:transparent;stroke:black" /><rect x="1186" y="1520" width="137" height="40" style="fill:green;stroke:black;stroke-width:1" /><text x="1196" y="1530" font-size="8" style="fill:white">Video.mp4</text></svg>